<?xml version="1.0" encoding="UTF-8" standalone="no"?>
<!-- Created with Inkscape (http://www.inkscape.org/) -->
<svg
   xmlns:dc="http://purl.org/dc/elements/1.1/"
   xmlns:cc="http://web.resource.org/cc/"
   xmlns:rdf="http://www.w3.org/1999/02/22-rdf-syntax-ns#"
   xmlns:svg="http://www.w3.org/2000/svg"
   xmlns="http://www.w3.org/2000/svg"
   xmlns:sodipodi="http://sodipodi.sourceforge.net/DTD/sodipodi-0.dtd"
   xmlns:inkscape="http://www.inkscape.org/namespaces/inkscape"
   width="99.999985"
   height="99.999985"
   id="svg2"
   sodipodi:version="0.32"
   inkscape:version="0.45.1"
   sodipodi:docbase="/Users/jrichter/workspace/OBO-Edit/src/org/oboedit/gui/resources/icons/typeicons"
   sodipodi:docname="develops_from.svg"
   inkscape:output_extension="org.inkscape.output.svg.inkscape"
   version="1.0">
  <defs
     id="defs4" />
  <sodipodi:namedview
     id="base"
     pagecolor="#ffffff"
     bordercolor="#666666"
     borderopacity="1.0"
     gridtolerance="10000"
     guidetolerance="10"
     objecttolerance="10"
     inkscape:pageopacity="0.0"
     inkscape:pageshadow="2"
     inkscape:zoom="1.979899"
     inkscape:cx="127.79884"
     inkscape:cy="120.00113"
     inkscape:document-units="px"
     inkscape:current-layer="layer1"
     inkscape:window-width="944"
     inkscape:window-height="745"
     inkscape:window-x="866"
     inkscape:window-y="411" />
  <metadata
     id="metadata7">
    <rdf:RDF>
      <cc:Work
         rdf:about="">
        <dc:format>image/svg+xml</dc:format>
        <dc:type
           rdf:resource="http://purl.org/dc/dcmitype/StillImage" />
      </cc:Work>
    </rdf:RDF>
  </metadata>
  <g
     inkscape:label="Layer 1"
     inkscape:groupmode="layer"
     id="layer1"
     transform="translate(-162.85712,-569.50502)">
    <rect
       style="fill:#008000;fill-opacity:1;stroke:none"
       id="rect4126"
       width="70.710678"
       height="70.710678"
       x="553.21356"
       y="252.18813"
       transform="matrix(0.7071068,0.7071068,-0.7071068,0.7071068,0,0)" />
    <path
       transform="scale(1.0320598,0.9689361)"
       style="font-size:58.80025482px;font-style:normal;font-variant:normal;font-weight:bold;font-stretch:normal;text-align:start;line-height:125%;writing-mode:lr-tb;text-anchor:start;fill:#ffffff;fill-opacity:1;stroke:none;stroke-width:1px;stroke-linecap:butt;stroke-linejoin:miter;stroke-opacity:1;font-family:Serif"
       d="M 201.07962,655.87838 L 205.07045,655.87838 C 209.54935,655.87838 212.82241,654.44283 214.88964,651.57172 C 216.97594,648.70062 218.01911,644.13557 218.01914,637.87654 C 218.01911,631.65584 216.98551,627.1195 214.91835,624.2675 C 212.85112,621.39643 209.56849,619.96088 205.07045,619.96084 L 201.07962,619.96084 L 201.07962,655.87838 M 184.54204,659.35242 L 184.54204,655.87838 L 190.02586,655.87838 L 190.02586,619.96084 L 184.54204,619.96084 L 184.54204,616.4868 L 206.53472,616.4868 C 214.22925,616.48684 220.11501,618.32435 224.19202,621.99933 C 228.26894,625.67438 230.30743,630.96678 230.30748,637.87654 C 230.30743,644.82463 228.25937,650.14575 224.16331,653.83989 C 220.0863,657.51491 214.21011,659.35242 206.53472,659.35242 L 184.54204,659.35242"
       id="text4128" />
  </g>
</svg>
