<?xml version="1.0" encoding="UTF-8" standalone="no"?>
<!-- Created with Inkscape (http://www.inkscape.org/) -->
<svg
   xmlns:svg="http://www.w3.org/2000/svg"
   xmlns="http://www.w3.org/2000/svg"
   version="1.0"
   width="99.999985"
   height="99.999985"
   id="svg2">
  <defs
     id="defs4" />
  <g
     transform="translate(-162.85712,-569.50502)"
     id="layer1">
    <g
       transform="matrix(0.979999,0,0,0.980002,3.4220134,13.388687)"
       id="g9647">
      <path
         d="M 109.60155 3.7829554 A 29.546961 29.546961 0 1 1  50.507627,3.7829554 A 29.546961 29.546961 0 1 1  109.60155 3.7829554 z"
         transform="matrix(1.6584903,0,0,1.6584904,79.919278,613.23101)"
         style="fill:#ffff00;fill-opacity:1;stroke:#000000;stroke-width:1.20187581;stroke-miterlimit:4;stroke-dasharray:none;stroke-opacity:1"
         id="path4568" />
      <path
         d="M 109.60155,3.7829554 A 29.546961,29.546961 0 1 1 50.507627,3.782954"
         transform="matrix(0.9960924,0,0,0.8395503,134.12805,628.62928)"
         style="fill:#000000;fill-opacity:1;stroke:#000000;stroke-width:1.69983184;stroke-miterlimit:4;stroke-dasharray:none;stroke-opacity:1"
         id="path5539" />
      <path
         d="M 23.738585 -39.401066 A 7.5761442 7.5761442 0 1 1  8.586297,-39.401066 A 7.5761442 7.5761442 0 1 1  23.738585 -39.401066 z"
         transform="matrix(0.7333333,0,0,0.7333333,179.79145,634.25699)"
         style="fill:#000000;fill-opacity:1;stroke:none;stroke-width:2;stroke-miterlimit:4;stroke-dasharray:none;stroke-opacity:1"
         id="path6510" />
      <path
         d="M 23.738585 -39.401066 A 7.5761442 7.5761442 0 1 1  8.586297,-39.401066 A 7.5761442 7.5761442 0 1 1  23.738585 -39.401066 z"
         transform="matrix(0.7333333,0,0,0.7333333,222.21787,634.25699)"
         style="fill:#000000;fill-opacity:1;stroke:none;stroke-width:2;stroke-miterlimit:4;stroke-dasharray:none;stroke-opacity:1"
         id="path7481" />
    </g>
  </g>
</svg>
