<?xml version="1.0" encoding="UTF-8" standalone="no"?>
<svg
   xmlns:svg="http://www.w3.org/2000/svg"
   xmlns="http://www.w3.org/2000/svg"
   version="1.0" width="60" height="60" viewBox="0 0 60 60"
   id="custom_svg"
   xml:space="preserve">

	<rect id="square" x="7.5" y="7.5" width="44" height="44" style="fill:#000000" />
	<path id="0" d="M29.386,38.958c-2.953,0-5.353-1.266-7.198-3.797s-2.769-5.818-2.769-9.861c0-4.09,0.926-7.389,2.777-9.896
		s4.289-3.762,7.312-3.762c3,0,5.429,1.251,7.286,3.753s2.786,5.78,2.786,9.835c0,4.16-0.929,7.488-2.786,9.984
		S32.468,38.958,29.386,38.958z M29.438,35.706c3.082,0,4.623-3.469,4.623-10.406s-1.518-10.406-4.553-10.406
		s-4.553,3.463-4.553,10.389C24.956,32.231,26.45,35.706,29.438,35.706z" style="fill:#FFFFFF" />
</svg>
