<?xml version="1.0" encoding="UTF-8" standalone="no"?>
<svg
   xmlns:svg="http://www.w3.org/2000/svg"
   xmlns="http://www.w3.org/2000/svg"
   version="1.0" width="60" height="60" viewBox="0 0 60 60"
   id="custom_svg"
   xml:space="preserve">

	<rect id="square" x="7.5" y="7.5" width="44" height="44" style="fill:#000000" />
	<path id="3" d="M21.177,38.114v-3.902c2.578,0.996,4.705,1.494,6.381,1.494c1.559,0,2.81-0.398,3.753-1.195s1.415-1.857,1.415-3.182
		c0-3.434-2.514-5.15-7.541-5.15h-1.6v-3.111l1.354-0.018c4.711,0,7.066-1.541,7.066-4.623c0-2.355-1.453-3.533-4.359-3.533
		c-1.91,0-3.949,0.486-6.117,1.459v-3.551c2.285-0.785,4.693-1.178,7.225-1.178c2.684,0,4.784,0.551,6.302,1.652
		s2.276,2.625,2.276,4.57c0,3.07-1.916,5.238-5.748,6.504c4.383,1.008,6.574,3.352,6.574,7.031c0,2.332-0.879,4.178-2.637,5.537
		s-4.148,2.039-7.172,2.039C25.782,38.958,23.392,38.677,21.177,38.114z" style="fill:#FFFFFF" />
</svg>
