<?xml version="1.0" encoding="UTF-8" standalone="no"?>
<svg
   xmlns:svg="http://www.w3.org/2000/svg"
   xmlns="http://www.w3.org/2000/svg"
   version="1.0" width="60" height="60" viewBox="0 0 60 60"
   id="custom_svg"
   xml:space="preserve">

	<rect id="square" x="7.5" y="7.5" width="44" height="44" style="fill:#000000" />
	<path id="8" d="M25.325,24.368c-2.508-1.652-3.762-3.645-3.762-5.977c0-2.016,0.791-3.647,2.373-4.896s3.656-1.872,6.223-1.872
		c2.414,0,4.345,0.533,5.792,1.6s2.171,2.49,2.171,4.271c0,2.297-1.465,4.471-4.395,6.521c3.703,1.934,5.555,4.365,5.555,7.295
		c0,2.285-0.902,4.131-2.707,5.537s-4.172,2.109-7.102,2.109c-2.801,0-5.06-0.645-6.776-1.934s-2.575-2.988-2.575-5.098
		C20.122,28.868,21.856,26.349,25.325,24.368z M27.892,26.108c-1.887,1.57-2.83,3.229-2.83,4.975c0,1.359,0.472,2.479,1.415,3.357
		s2.142,1.318,3.595,1.318c1.277,0,2.347-0.346,3.208-1.037s1.292-1.553,1.292-2.584c0-0.891-0.29-1.652-0.87-2.285
		s-1.708-1.424-3.384-2.373L27.892,26.108z M31.021,22.54c1.734-1.348,2.602-2.789,2.602-4.324c0-1.008-0.357-1.813-1.072-2.417
		s-1.658-0.905-2.83-0.905c-1.09,0-1.972,0.264-2.646,0.791s-1.011,1.219-1.011,2.074c0,0.844,0.334,1.585,1.002,2.224
		S29.052,21.474,31.021,22.54z" style="fill:#FFFFFF" />
</svg>
