<?xml version="1.0" encoding="UTF-8" standalone="no"?>
<svg
   xmlns:svg="http://www.w3.org/2000/svg"
   xmlns="http://www.w3.org/2000/svg"
   version="1.0" width="60" height="60" viewBox="0 0 60 60"
   id="custom_svg"
   xml:space="preserve">

	<rect id="square" x="7.5" y="7.5" width="44" height="44" style="fill:#000000" />
	<path id="a" d="M31.627,36.233c-1.734,1.676-3.592,2.514-5.572,2.514c-1.688,0-3.059-0.516-4.113-1.547s-1.582-2.367-1.582-4.008
		c0-2.133,0.853-3.776,2.558-4.931s4.146-1.731,7.321-1.731h1.389v-1.758c0-2.004-1.143-3.006-3.428-3.006
		c-2.027,0-4.078,0.574-6.152,1.723v-3.586c2.355-0.891,4.688-1.336,6.996-1.336c5.051,0,7.576,2.01,7.576,6.029v8.543
		c0,1.512,0.486,2.268,1.459,2.268c0.176,0,0.404-0.023,0.686-0.07l0.123,2.918c-1.102,0.328-2.074,0.492-2.918,0.492
		c-2.133,0-3.504-0.838-4.113-2.514H31.627z M31.627,33.438v-3.92h-1.23c-3.363,0-5.045,1.055-5.045,3.164
		c0,0.715,0.243,1.315,0.729,1.802s1.087,0.729,1.802,0.729C29.102,35.214,30.35,34.622,31.627,33.438z" style="fill:#FFFFFF" />
</svg>
