<?xml version="1.0" encoding="UTF-8" standalone="no"?>
<svg
   xmlns:svg="http://www.w3.org/2000/svg"
   xmlns="http://www.w3.org/2000/svg"
   version="1.0" width="60" height="60" viewBox="0 0 60 60"
   id="custom_svg"
   xml:space="preserve">

	<rect id="square" x="7.5" y="7.5" width="44" height="44" style="fill:#000000" />
	<path id="b" d="M20.825,38.308V10.552h5.203v12.094c1.336-2.719,3.439-4.078,6.311-4.078c2.32,0,4.146,0.85,5.476,2.549
		s1.995,4.037,1.995,7.014c0,3.223-0.75,5.798-2.25,7.726s-3.504,2.892-6.012,2.892c-2.156,0-3.996-0.797-5.52-2.391l-0.967,1.951
		H20.825z M26.028,33.263c1.266,1.406,2.613,2.109,4.043,2.109c1.277,0,2.297-0.618,3.059-1.854s1.143-2.886,1.143-4.948
		c0-3.949-1.271-5.924-3.814-5.924c-1.535,0-3.012,0.99-4.43,2.971V33.263z" style="fill:#FFFFFF" />
</svg>
