<?xml version="1.0" encoding="UTF-8" standalone="no"?>
<svg
   xmlns:svg="http://www.w3.org/2000/svg"
   xmlns="http://www.w3.org/2000/svg"
   version="1.0" width="60" height="60" viewBox="0 0 60 60"
   id="custom_svg"
   xml:space="preserve">

	<rect id="square" x="7.5" y="7.5" width="44" height="44" style="fill:#000000" />
	<path id="B_UC" d="M21.414,38.276V12.261h8.842c2.613,0,4.603,0.492,5.968,1.477s2.048,2.42,2.048,4.307c0,3.129-2.08,5.344-6.24,6.645
		c4.863,1.184,7.295,3.568,7.295,7.154c0,2.074-0.712,3.665-2.136,4.772s-3.466,1.661-6.126,1.661H21.414z M26.512,23.089h1.283
		c1.523,0,2.733-0.375,3.63-1.125s1.345-1.77,1.345-3.059c0-1.195-0.36-2.007-1.081-2.435s-2.083-0.642-4.087-0.642h-1.09V23.089z
		 M26.512,34.585h1.16c2.273,0,3.841-0.243,4.702-0.729s1.292-1.374,1.292-2.663c0-1.324-0.577-2.426-1.731-3.305
		s-2.61-1.318-4.368-1.318h-1.055V34.585z" style="fill:#FFFFFF" />
</svg>
