<?xml version="1.0" encoding="UTF-8" standalone="no"?>
<svg
   xmlns:svg="http://www.w3.org/2000/svg"
   xmlns="http://www.w3.org/2000/svg"
   version="1.0" width="60" height="60" viewBox="0 0 60 60"
   id="custom_svg"
   xml:space="preserve">

	<rect id="square" x="7.5" y="7.5" width="44" height="44" style="fill:#000000" />
	<path id="c" d="M37.41,37.886c-2.156,0.574-4.154,0.861-5.994,0.861c-3.082,0-5.517-0.905-7.304-2.716s-2.681-4.274-2.681-7.392
		c0-3.152,0.92-5.619,2.76-7.4s4.383-2.672,7.629-2.672c1.57,0,3.381,0.252,5.432,0.756v3.762c-2.133-0.691-3.838-1.037-5.115-1.037
		c-1.559,0-2.812,0.598-3.762,1.793s-1.424,2.783-1.424,4.764c0,2.027,0.513,3.65,1.538,4.869s2.394,1.828,4.104,1.828
		c1.559,0,3.164-0.34,4.816-1.02V37.886z" style="fill:#FFFFFF" />
</svg>
