<?xml version="1.0" encoding="UTF-8" standalone="no"?>
<svg
   xmlns:svg="http://www.w3.org/2000/svg"
   xmlns="http://www.w3.org/2000/svg"
   version="1.0" width="60" height="60" viewBox="0 0 60 60"
   id="custom_svg"
   xml:space="preserve">

	<rect id="square" x="7.5" y="7.5" width="44" height="44" style="fill:#000000" />
	<path id="C_UC" d="M40.864,37.271c-2.52,1.125-5.525,1.688-9.018,1.688c-4.266,0-7.588-1.201-9.967-3.604s-3.568-5.754-3.568-10.055
		c0-4.383,1.198-7.755,3.595-10.116s5.815-3.542,10.257-3.542c2.836,0,5.654,0.334,8.455,1.002v4.236
		c-3.176-1.113-5.836-1.67-7.98-1.67c-2.742,0-4.857,0.87-6.346,2.61s-2.232,4.21-2.232,7.409c0,3.141,0.8,5.59,2.399,7.348
		s3.823,2.637,6.671,2.637c2.555,0,5.133-0.645,7.734-1.934V37.271z" style="fill:#FFFFFF" />
</svg>
