<?xml version="1.0" encoding="UTF-8" standalone="no"?>
<svg
   xmlns:svg="http://www.w3.org/2000/svg"
   xmlns="http://www.w3.org/2000/svg"
   version="1.0" width="60" height="60" viewBox="0 0 60 60"
   id="custom_svg"
   xml:space="preserve">

	<rect id="square" x="7.5" y="7.5" width="44" height="44" style="fill:#000000" />
	<path id="e" d="M37.92,37.657c-2.473,0.727-4.816,1.09-7.031,1.09c-3.223,0-5.766-0.914-7.629-2.742s-2.795-4.324-2.795-7.488
		c0-2.988,0.853-5.394,2.558-7.216s3.958-2.733,6.759-2.733c2.824,0,4.887,0.891,6.188,2.672s1.951,4.6,1.951,8.455H25.949
		c0.352,3.68,2.373,5.52,6.064,5.52c1.746,0,3.715-0.404,5.906-1.213V37.657z M25.879,26.759h6.926c0-3.293-1.061-4.939-3.182-4.939
		C27.467,21.819,26.219,23.466,25.879,26.759z" style="fill:#FFFFFF" />
</svg>
