<?xml version="1.0" encoding="UTF-8" standalone="no"?>
<svg
   xmlns:svg="http://www.w3.org/2000/svg"
   xmlns="http://www.w3.org/2000/svg"
   version="1.0" width="60" height="60" viewBox="0 0 60 60"
   id="custom_svg"
   xml:space="preserve">

	<rect id="square" x="7.5" y="7.5" width="44" height="44" style="fill:#000000" />
	<path id="m" d="M15.297,38.308V19.007h4.992v3.639c1.523-2.719,3.691-4.078,6.504-4.078c1.453,0,2.648,0.357,3.586,1.072
		s1.512,1.717,1.723,3.006c1.805-2.719,3.984-4.078,6.539-4.078c3.527,0,5.291,1.945,5.291,5.836v13.904h-4.992V26.108
		c0-2.285-0.762-3.428-2.285-3.428c-1.559,0-3.076,1.125-4.553,3.375v12.252h-4.992V26.108c0-2.297-0.768-3.445-2.303-3.445
		s-3.041,1.131-4.518,3.393v12.252H15.297z" style="fill:#FFFFFF" />
</svg>
