<?xml version="1.0" encoding="UTF-8" standalone="no"?>
<svg
   xmlns:svg="http://www.w3.org/2000/svg"
   xmlns="http://www.w3.org/2000/svg"
   version="1.0" width="60" height="60" viewBox="0 0 60 60"
   id="custom_svg"
   xml:space="preserve">

	<rect id="square" x="7.5" y="7.5" width="44" height="44" style="fill:#000000" />
	<path id="o" d="M29.359,38.747c-3.012,0-5.405-0.911-7.181-2.733s-2.663-4.274-2.663-7.356c0-3.117,0.894-5.578,2.681-7.383
		s4.216-2.707,7.286-2.707c3.082,0,5.517,0.902,7.304,2.707s2.681,4.254,2.681,7.348c0,3.164-0.896,5.643-2.689,7.436
		S32.512,38.747,29.359,38.747z M29.447,35.495c2.988,0,4.482-2.291,4.482-6.873c0-2.098-0.396-3.756-1.187-4.975
		s-1.878-1.828-3.261-1.828c-1.371,0-2.452,0.609-3.243,1.828s-1.187,2.889-1.187,5.01c0,2.098,0.393,3.762,1.178,4.992
		S28.088,35.495,29.447,35.495z" style="fill:#FFFFFF" />
</svg>
