<?xml version="1.0" encoding="UTF-8" standalone="no"?>
<svg
   xmlns:svg="http://www.w3.org/2000/svg"
   xmlns="http://www.w3.org/2000/svg"
   version="1.0" width="60" height="60" viewBox="0 0 60 60"
   id="custom_svg"
   xml:space="preserve">

	<rect id="square" x="7.5" y="7.5" width="44" height="44" style="fill:#000000" />
	<path id="p" d="M20.825,45.251V19.007h5.203v3.639c1.336-2.719,3.439-4.078,6.311-4.078c2.32,0,4.146,0.85,5.476,2.549
		s1.995,4.037,1.995,7.014c0,3.234-0.75,5.812-2.25,7.734s-3.51,2.883-6.029,2.883c-2.027,0-3.861-0.797-5.502-2.391v8.895H20.825z
		 M26.028,33.263c1.266,1.406,2.613,2.109,4.043,2.109c1.277,0,2.297-0.618,3.059-1.854s1.143-2.886,1.143-4.948
		c0-3.949-1.271-5.924-3.814-5.924c-1.535,0-3.012,0.99-4.43,2.971V33.263z" style="fill:#FFFFFF" />
</svg>
