<?xml version="1.0" encoding="UTF-8" standalone="no"?>
<svg
   xmlns:svg="http://www.w3.org/2000/svg"
   xmlns="http://www.w3.org/2000/svg"
   version="1.0" width="60" height="60" viewBox="0 0 60 60"
   id="custom_svg"
   xml:space="preserve">

	<rect id="square" x="7.5" y="7.5" width="44" height="44" style="fill:#000000" />
	<path id="q" d="M32.972,45.251V34.669c-1.336,2.719-3.439,4.078-6.311,4.078c-2.32,0-4.143-0.85-5.467-2.549s-1.986-4.037-1.986-7.014
		c0-3.234,0.747-5.812,2.241-7.734s3.501-2.883,6.021-2.883c2.016,0,3.85,0.797,5.502,2.391l0.65-1.951h4.57v26.244H32.972z
		 M32.972,24.052c-1.254-1.406-2.596-2.109-4.025-2.109c-1.277,0-2.297,0.615-3.059,1.846s-1.143,2.883-1.143,4.957
		c0,3.949,1.266,5.924,3.797,5.924c1.547,0,3.023-0.99,4.43-2.971V24.052z" style="fill:#FFFFFF" />
</svg>
