<?xml version="1.0" encoding="UTF-8" standalone="no"?>
<svg
   xmlns:svg="http://www.w3.org/2000/svg"
   xmlns="http://www.w3.org/2000/svg"
   version="1.0" width="60" height="60" viewBox="0 0 60 60"
   id="custom_svg"
   xml:space="preserve">

	<rect id="square" x="7.5" y="7.5" width="44" height="44" style="fill:#000000" />
	<path id="Q_UC" d="M41.709,43.511c-4.664-1.23-8.461-2.777-11.391-4.641c-0.855,0.059-1.488,0.088-1.898,0.088
		c-3.938,0-7.09-1.242-9.457-3.727s-3.551-5.795-3.551-9.932c0-4.184,1.189-7.506,3.568-9.967s5.59-3.691,9.633-3.691
		c4.043,0,7.25,1.233,9.624,3.7s3.561,5.804,3.561,10.011c0,5.906-2.314,10.025-6.943,12.357c3.41,1.172,6.867,1.945,10.371,2.32
		L41.709,43.511z M28.525,35.372c2.309,0,4.139-0.908,5.493-2.725s2.031-4.283,2.031-7.4c0-3.035-0.678-5.467-2.031-7.295
		s-3.154-2.742-5.405-2.742c-2.262,0-4.069,0.914-5.423,2.742s-2.03,4.271-2.03,7.33c0,3.035,0.674,5.476,2.021,7.321
		S26.31,35.372,28.525,35.372z" style="fill:#FFFFFF" />
</svg>
