<?xml version="1.0" encoding="UTF-8" standalone="no"?>
<svg
   xmlns:svg="http://www.w3.org/2000/svg"
   xmlns="http://www.w3.org/2000/svg"
   version="1.0" width="60" height="60" viewBox="0 0 60 60"
   id="custom_svg"
   xml:space="preserve">

	<rect id="square" x="7.5" y="7.5" width="44" height="44" style="fill:#000000" />
	<path id="3_UC" d="M21.968,38.308v-4.113c1.289-0.305,2.188-0.823,2.698-1.556s0.765-1.866,0.765-3.401v-3.182h-2.865v-3.252h2.865v-2.988
		c0-5.461,2.631-8.191,7.893-8.191c1.406,0,2.971,0.141,4.693,0.422v3.568c-1.406-0.48-2.76-0.721-4.061-0.721
		c-2.215,0-3.322,1.254-3.322,3.762v4.148h3.428v3.252h-3.428c0,2.309-0.24,3.976-0.721,5.001s-1.506,2.071-3.076,3.138H38.28v4.113
		H21.968z" style="fill:#FFFFFF" />
</svg>
