<?xml version="1.0" encoding="UTF-8" standalone="no"?>
<svg
   xmlns:svg="http://www.w3.org/2000/svg"
   xmlns="http://www.w3.org/2000/svg"
   version="1.0" width="60" height="60" viewBox="0 0 60 60"
   id="custom_svg"
   xml:space="preserve">

	<rect id="square" x="7.5" y="7.5" width="44" height="44" style="fill:#000000" />
	<path id="5_UC" d="M21.959,25.3c-1.887,0-3.378-0.583-4.474-1.749s-1.644-2.751-1.644-4.755c0-2.027,0.551-3.618,1.652-4.772
		s2.613-1.731,4.535-1.731c1.91,0,3.416,0.577,4.518,1.731s1.652,2.739,1.652,4.755c0,2.039-0.551,3.636-1.652,4.79
		S23.916,25.3,21.959,25.3z M17.512,38.958l20.461-27.316h3.516L21.045,38.958H17.512z M21.994,22.698
		c1.535,0,2.303-1.307,2.303-3.92c0-2.59-0.756-3.885-2.268-3.885c-1.523,0-2.285,1.301-2.285,3.902S20.494,22.698,21.994,22.698z
		 M36.918,38.308c-1.887,0-3.378-0.583-4.474-1.749s-1.644-2.751-1.644-4.755c0-2.027,0.551-3.618,1.652-4.772
		s2.613-1.731,4.535-1.731s3.431,0.577,4.526,1.731s1.644,2.739,1.644,4.755c0,2.051-0.551,3.65-1.652,4.799
		S38.875,38.308,36.918,38.308z M36.953,35.706c1.535,0,2.303-1.307,2.303-3.92c0-2.59-0.756-3.885-2.268-3.885
		c-1.523,0-2.285,1.301-2.285,3.902S35.453,35.706,36.953,35.706z" style="fill:#FFFFFF" />
</svg>
