<?xml version="1.0" encoding="UTF-8" standalone="no"?>
<svg
   xmlns:svg="http://www.w3.org/2000/svg"
   xmlns="http://www.w3.org/2000/svg"
   version="1.0" width="60" height="60" viewBox="0 0 60 60"
   id="custom_svg"
   xml:space="preserve">

	<rect id="square" x="7.5" y="7.5" width="44" height="44" style="fill:#000000" />
	<path id="7_UC" d="M41.005,38.308h-6.117l-1.16-1.389c-2.051,1.359-4.307,2.039-6.768,2.039c-2.801,0-5.112-0.785-6.935-2.355
		s-2.733-3.562-2.733-5.977c0-3.586,2.162-6.27,6.486-8.051c-1.242-2.18-1.863-3.961-1.863-5.344c0-1.582,0.688-2.912,2.065-3.99
		s3.085-1.617,5.124-1.617c1.957,0,3.568,0.519,4.834,1.556s1.898,2.358,1.898,3.964c0,2.496-1.916,4.635-5.748,6.416
		c1.488,2.754,3.246,5.355,5.273,7.805c1.184-1.711,1.775-4.096,1.775-7.154v-0.404h4.377c0,3.832-1.383,7.23-4.148,10.195
		C38.515,35.489,39.728,36.925,41.005,38.308z M25.554,25.265c-2.145,0.973-3.217,2.443-3.217,4.412
		c0,1.652,0.536,3.053,1.608,4.201s2.382,1.723,3.929,1.723c1.359,0,2.619-0.41,3.779-1.23c-1.934-2.449-3.756-5.127-5.467-8.033
		L25.554,25.265z M28.454,21.134c2.027-1.078,3.041-2.373,3.041-3.885c0-1.57-0.773-2.355-2.32-2.355s-2.32,0.756-2.32,2.268
		C26.854,18.181,27.388,19.505,28.454,21.134z" style="fill:#FFFFFF" />
</svg>
