<?xml version="1.0" encoding="UTF-8" standalone="no"?>
<svg
   xmlns:svg="http://www.w3.org/2000/svg"
   xmlns="http://www.w3.org/2000/svg"
   version="1.0" width="60" height="60" viewBox="0 0 60 60"
   id="custom_svg"
   xml:space="preserve">

	<rect id="square" x="7.5" y="7.5" width="44" height="44" style="fill:#000000" />
	<path id="greek_small_sigma" d="M31.073,19.007h10.125v3.691h-5.01c1.043,1.934,1.563,3.885,1.563,5.854
	c0,3.177-0.888,5.669-2.662,7.479c-1.775,1.81-4.217,2.716-7.321,2.716c-3.082,0-5.514-0.902-7.295-2.707
	c-1.781-1.806-2.672-4.267-2.672-7.383c0-3.094,0.888-5.549,2.663-7.365c1.774-1.816,4.175-2.725,7.197-2.725
	C28.647,18.567,29.784,18.714,31.073,19.007z M27.733,35.495c1.488,0,2.607-0.571,3.357-1.714s1.125-2.862,1.125-5.159
	c0-2.098-0.396-3.756-1.188-4.975s-1.878-1.828-3.261-1.828c-1.371,0-2.452,0.609-3.243,1.828s-1.187,2.889-1.187,5.01
	c0,2.098,0.393,3.762,1.178,4.991C25.301,34.879,26.374,35.495,27.733,35.495z" style="fill:#FFFFFF" />
</svg>
