<?xml version="1.0" encoding="UTF-8" standalone="no"?>
<svg
   xmlns:svg="http://www.w3.org/2000/svg"
   xmlns="http://www.w3.org/2000/svg"
   version="1.0" width="60" height="60" viewBox="0 0 60 60"
   id="custom_svg"
   xml:space="preserve">

	<rect id="square" x="7.5" y="7.5" width="44" height="44" style="fill:#000000" />
	<path id="greek_capital_upsilon" d="M26.512,38.275v-7.664c0-3.972-0.861-7.411-2.584-10.317c-1.723-2.906-3.768-4.359-6.135-4.359
	v-3.674c3.434,0,6.132,0.854,8.095,2.558c1.963,1.705,3.401,4.456,4.315,8.253c1.066-3.117,2.581-5.64,4.544-7.567
	c1.963-1.927,4.116-3.009,6.46-3.243v3.252c-2.484,0.574-4.648,2.396-6.494,5.467c-1.847,3.071-2.77,6.375-2.77,9.914v7.383h-5.431
	V38.275z" style="fill:#FFFFFF" />
</svg>
