<?xml version="1.0" encoding="UTF-8" standalone="no"?>
<svg
   xmlns:svg="http://www.w3.org/2000/svg"
   xmlns="http://www.w3.org/2000/svg"
   version="1.0" width="60" height="60" viewBox="0 0 60 60"
   id="custom_svg"
   xml:space="preserve">

	<rect id="square" x="7.5" y="7.5" width="44" height="44" style="fill:#000000" />
	<path id="greek_small_alpha" d="M33.685,26.548c0.469-1.184,0.841-2.402,1.116-3.656c0.274-1.254,0.447-2.549,0.519-3.885h5.237
	c-0.233,1.957-0.696,3.703-1.389,5.238c-0.691,1.535-1.834,3.346-3.428,5.432c2.145,3.88,3.99,6.757,5.537,8.632h-5.783
	c-0.938-1.336-1.934-2.918-2.988-4.746c-2.977,3.457-5.688,5.186-8.139,5.186c-1.969,0-3.567-0.841-4.799-2.521
	c-1.23-1.682-1.846-3.871-1.846-6.565c0-3.129,0.838-5.76,2.514-7.893c1.676-2.133,3.744-3.199,6.205-3.199
	c2.191,0,3.974,1.383,5.344,4.148l1.283,2.619C33.198,25.593,33.403,25.997,33.685,26.548z M30.925,30.607l-0.703-1.458
	c-0.141-0.316-0.328-0.727-0.562-1.23c-0.479-1.055-0.797-1.729-0.948-2.021l-1.091-1.986c-0.516-0.926-1.03-1.389-1.547-1.389
	c-0.819,0-1.509,0.662-2.064,1.986c-0.557,1.324-0.835,2.953-0.835,4.887c0,1.887,0.208,3.299,0.624,4.236s1.046,1.406,1.89,1.406
	C26.905,35.038,28.651,33.562,30.925,30.607z" style="fill:#FFFFFF" />
</svg>
