<?xml version="1.0" encoding="UTF-8" standalone="no"?>
<svg
   xmlns:svg="http://www.w3.org/2000/svg"
   xmlns="http://www.w3.org/2000/svg"
   version="1.0" width="60" height="60" viewBox="0 0 60 60"
   id="custom_svg"
   xml:space="preserve">

	<rect id="square" x="7.5" y="7.5" width="44" height="44" style="fill:#000000" />
	<path id="greek_small_beta" d="M20.412,45.251V21.362c0-3.75,0.74-6.562,2.224-8.438s3.712-2.812,6.688-2.812
	c2.228,0,4.005,0.56,5.335,1.679s1.995,2.616,1.995,4.491c0,1.395-0.409,2.654-1.229,3.779s-2.051,2.121-3.691,2.988
	c2.18,0.668,3.867,1.679,5.062,3.032c1.194,1.353,1.793,2.927,1.793,4.72c0,2.262-0.832,4.151-2.496,5.669
	c-1.664,1.519-3.728,2.276-6.188,2.276c-1.358,0-2.789-0.223-4.289-0.668v7.172L20.412,45.251L20.412,45.251z M26.687,22.206h0.439
	c1.229,0,2.265-0.536,3.103-1.608c0.838-1.072,1.257-2.399,1.257-3.981c0-1.078-0.223-1.89-0.668-2.435
	c-0.444-0.545-1.106-0.817-1.985-0.817c-1.078,0-1.885,0.548-2.417,1.644c-0.533,1.096-0.801,2.739-0.801,4.931v14.625
	c1.302,0.621,2.496,0.933,3.586,0.933c1.173,0,2.159-0.442,2.963-1.327c0.803-0.885,1.203-1.972,1.203-3.261
	c0-1.57-0.595-2.889-1.783-3.955c-1.189-1.066-2.663-1.6-4.421-1.6h-0.476V22.206z" style="fill:#FFFFFF" />
</svg>
