<?xml version="1.0" encoding="UTF-8" standalone="no"?>
<svg
   xmlns:svg="http://www.w3.org/2000/svg"
   xmlns="http://www.w3.org/2000/svg"
   version="1.0" width="60" height="60" viewBox="0 0 60 60"
   id="custom_svg"
   xml:space="preserve">

	<rect id="square" x="7.5" y="7.5" width="44" height="44" style="fill:#000000" />
	<path id="greek_small_upsilon" d="M20.87,19.007h5.203v9.281c0,2.776,0.267,4.673,0.8,5.687c0.533,1.015,1.532,1.521,2.997,1.521
	c1.336,0,2.417-0.562,3.243-1.688c0.826-1.127,1.239-2.597,1.239-4.413c0-2.977-1.05-6.439-3.146-10.389h5.062
	c1.241,3.258,1.862,6.428,1.862,9.51c0,3.129-0.806,5.616-2.416,7.461c-1.611,1.847-3.776,2.77-6.496,2.77
	c-2.52,0-4.518-0.691-5.993-2.074c-0.938-0.867-1.564-1.878-1.882-3.031c-0.316-1.154-0.475-2.985-0.475-5.494L20.87,19.007
	L20.87,19.007z" style="fill:#FFFFFF" />
</svg>
