<?xml version="1.0" encoding="UTF-8" standalone="no"?>
<svg
   xmlns:svg="http://www.w3.org/2000/svg"
   xmlns="http://www.w3.org/2000/svg"
   version="1.0" width="60" height="60" viewBox="0 0 60 60"
   id="custom_svg"
   xml:space="preserve">

	<rect id="square" x="7.5" y="7.5" width="44" height="44" style="fill:#000000" />
	<path id="greek_small_theta" d="M29.359,38.747c-2.941,0-5.241-1.257-6.899-3.771c-1.658-2.515-2.487-5.998-2.487-10.451
	c0-4.57,0.832-8.115,2.496-10.635s4.008-3.779,7.031-3.779c3.012,0,5.353,1.257,7.022,3.771c1.669,2.514,2.505,6.038,2.505,10.573
	c0,4.582-0.839,8.108-2.515,10.582C34.837,37.511,32.453,38.747,29.359,38.747z M25.246,25.792l-0.019,0.756
	c0,2.801,0.378,4.992,1.135,6.574c0.756,1.582,1.802,2.373,3.138,2.373s2.382-0.791,3.138-2.373s1.134-3.773,1.134-6.574
	l-0.018-0.756H25.246z M25.281,22.522h8.438c0-3.047-0.352-5.335-1.055-6.864c-0.703-1.529-1.758-2.294-3.164-2.294
	s-2.461,0.765-3.164,2.294C25.633,17.187,25.281,19.476,25.281,22.522z" style="fill:#FFFFFF" />
</svg>
