<?xml version="1.0" encoding="UTF-8" standalone="no"?>
<svg
   xmlns:svg="http://www.w3.org/2000/svg"
   xmlns="http://www.w3.org/2000/svg"
   version="1.0" width="60" height="60" viewBox="0 0 60 60"
   id="custom_svg"
   xml:space="preserve">

	<rect id="square" x="7.5" y="7.5" width="44" height="44" style="fill:#000000" />
	<path id="greek_small_zeta" d="M25.562,18.04h-0.791c-2.355,0-4.6-0.434-6.732-1.301v-4.518c3.094,1.828,6.498,2.859,10.213,3.094
	c1.781-1.547,3.586-2.754,5.414-3.621c1.828-0.867,3.687-1.395,5.571-1.582l1.037,3.041c-1.371,1.395-2.908,2.511-4.613,3.349
	s-3.577,1.397-5.616,1.679c-1.289,2.004-2.256,3.932-2.9,5.783s-0.967,3.621-0.967,5.309c0,1.723,0.46,2.974,1.38,3.752
	c0.92,0.779,2.399,1.17,4.438,1.17h1.758c2.402,0,4.204,0.447,5.405,1.345s1.802,2.241,1.802,4.034c0,1.875-0.782,3.359-2.347,4.456
	c-1.565,1.096-3.684,1.644-6.354,1.644c-0.961,0-2.045-0.111-3.252-0.334v-3.568c1.137,0.293,2.303,0.439,3.498,0.439
	c1.43,0,2.502-0.176,3.218-0.527c0.715-0.351,1.071-0.873,1.071-1.563s-0.302-1.166-0.905-1.425
	c-0.603-0.258-1.696-0.387-3.278-0.387h-1.6c-3.422,0-5.988-0.715-7.699-2.145s-2.566-3.574-2.566-6.434
	c0-1.898,0.401-3.82,1.204-5.766C22.754,22.018,23.957,20.044,25.562,18.04z" style="fill:#FFFFFF" />
</svg>
