<?xml version="1.0" encoding="UTF-8" standalone="no"?>
<svg
   xmlns:svg="http://www.w3.org/2000/svg"
   xmlns="http://www.w3.org/2000/svg"
   version="1.0" width="60" height="60" viewBox="0 0 60 60"
   id="custom_svg"
   xml:space="preserve">

	<rect id="square" x="7.5" y="7.5" width="44" height="44" style="fill:#000000" />
	<path id="greek_capital_omega" d="M15.613,38.309v-3.586h7.312c-2.145-1.595-3.753-3.341-4.825-5.239
	c-1.072-1.898-1.608-3.949-1.608-6.152c0-3.457,1.207-6.27,3.621-8.438s5.543-3.252,9.387-3.252c3.844,0,6.973,1.084,9.387,3.252
	s3.621,4.98,3.621,8.438c0,2.191-0.537,4.236-1.607,6.135c-1.072,1.899-2.682,3.65-4.826,5.256h7.312v3.586h-11.9v-3.586
	c1.758-1.312,3.076-2.886,3.955-4.72s1.318-3.929,1.318-6.284c0-2.637-0.646-4.714-1.941-6.231
	c-1.295-1.517-3.068-2.276-5.318-2.276c-2.25,0-4.022,0.762-5.317,2.285s-1.942,3.604-1.942,6.24c0,2.355,0.439,4.447,1.318,6.275
	c0.879,1.828,2.197,3.398,3.955,4.71v3.586H15.613L15.613,38.309z" style="fill:#FFFFFF" />
</svg>
