<?xml version="1.0" encoding="UTF-8" standalone="no"?>
<svg
   xmlns:svg="http://www.w3.org/2000/svg"
   xmlns="http://www.w3.org/2000/svg"
   version="1.0" width="60" height="60" viewBox="0 0 60 60"
   id="custom_svg"
   xml:space="preserve">

	<rect id="square" x="7.5" y="7.5" width="44" height="44" style="fill:#000000" />
	<path id="greek_capital_psi" d="M26.785,38.275V27.976c-2.509-0.141-4.339-0.741-5.493-1.802s-1.919-2.839-2.294-5.335l-0.246-1.6
	c-0.211-1.406-0.483-2.326-0.817-2.76s-0.935-0.65-1.802-0.65h-0.229v-3.568h0.334c2.391,0,4.055,0.401,4.991,1.204
	c0.938,0.803,1.629,2.429,2.074,4.878l0.316,1.688c0.315,1.746,0.683,2.918,1.099,3.516c0.416,0.598,1.104,0.955,2.065,1.072V12.261
	h5.432v12.357c0.961-0.117,1.649-0.475,2.065-1.072c0.416-0.597,0.781-1.77,1.098-3.516l0.316-1.688
	c0.445-2.449,1.137-4.075,2.074-4.878c0.938-0.803,2.602-1.204,4.992-1.204h0.334v3.568h-0.229c-0.867,0-1.469,0.217-1.803,0.65
	s-0.605,1.354-0.816,2.76l-0.246,1.6c-0.375,2.496-1.144,4.274-2.303,5.335c-1.16,1.061-2.988,1.661-5.484,1.802v10.3H26.785z" style="fill:#FFFFFF" />
</svg>
