<?xml version="1.0" encoding="UTF-8" standalone="no"?>
<svg
   xmlns:svg="http://www.w3.org/2000/svg"
   xmlns="http://www.w3.org/2000/svg"
   version="1.0" width="60" height="60" viewBox="0 0 60 60"
   id="custom_svg"
   xml:space="preserve">

	<rect id="square" x="7.5" y="7.5" width="44" height="44" style="fill:#000000" />
	<path id="greek_capital_phi" d="M26.951,38.275v-3.551c-3.023-0.141-5.443-1.072-7.26-2.795c-1.817-1.723-2.725-3.943-2.725-6.662
	c0-2.73,0.908-4.954,2.725-6.671c1.817-1.717,4.236-2.646,7.26-2.786V12.26h5.098v3.551c3.022,0.141,5.442,1.069,7.26,2.786
	c1.817,1.717,2.726,3.94,2.726,6.671c0,2.719-0.908,4.939-2.726,6.662s-4.235,2.654-7.26,2.795v3.551H26.951z M26.951,19.38
	c-1.594,0.211-2.789,0.809-3.586,1.793c-0.797,0.984-1.195,2.35-1.195,4.096c0,1.758,0.398,3.126,1.195,4.104
	s1.992,1.566,3.586,1.768V19.38z M32.049,19.38v11.761c1.594-0.199,2.789-0.789,3.586-1.768s1.194-2.347,1.194-4.104
	c0-1.746-0.397-3.111-1.194-4.096C34.838,20.188,33.643,19.591,32.049,19.38z" style="fill:#FFFFFF" />
</svg>
