<?xml version="1.0" encoding="UTF-8" standalone="no"?>
<svg
   xmlns:svg="http://www.w3.org/2000/svg"
   xmlns="http://www.w3.org/2000/svg"
   version="1.0" width="60" height="60" viewBox="0 0 60 60"
   id="custom_svg"
   xml:space="preserve">

	<rect id="square" x="7.5" y="7.5" width="44" height="44" style="fill:#000000" />
	<path id="greek_small_rho" d="M20.438,45.251V32.7c0-4.922,0.756-8.508,2.268-10.758s3.92-3.375,7.226-3.375
	c2.694,0,4.808,0.779,6.337,2.338c1.528,1.559,2.293,3.709,2.293,6.451c0,3.141-0.945,5.751-2.838,7.832
	c-1.894,2.08-4.274,3.119-7.146,3.119c-0.996,0-1.975-0.158-2.936-0.475v7.418L20.438,45.251L20.438,45.251z M25.642,34.124
	c0.901,0.621,1.821,0.933,2.76,0.933c1.44,0,2.628-0.691,3.56-2.074c0.933-1.383,1.397-3.135,1.397-5.256
	c0-1.828-0.354-3.27-1.063-4.324c-0.709-1.054-1.685-1.582-2.927-1.582c-1.395,0-2.364,0.645-2.909,1.934s-0.816,3.58-0.816,6.873
	L25.642,34.124L25.642,34.124z" style="fill:#FFFFFF" />
</svg>
