<?xml version="1.0" encoding="UTF-8" standalone="no"?>
<svg
   xmlns:svg="http://www.w3.org/2000/svg"
   xmlns="http://www.w3.org/2000/svg"
   version="1.0" width="60" height="60" viewBox="0 0 60 60"
   id="custom_svg"
   xml:space="preserve">

	<rect id="square" x="7.5" y="7.5" width="44" height="44" style="fill:#000000" />
	<path id="greek_small_omicron" d="M29.368,38.747c-3.013,0-5.405-0.911-7.182-2.733c-1.775-1.822-2.663-4.273-2.663-7.355
	c0-3.117,0.895-5.578,2.682-7.383c1.786-1.805,4.216-2.707,7.285-2.707c3.082,0,5.518,0.902,7.305,2.707s2.682,4.254,2.682,7.348
	c0,3.164-0.896,5.643-2.689,7.436S32.521,38.747,29.368,38.747z M29.456,35.495c2.987,0,4.481-2.291,4.481-6.873
	c0-2.098-0.396-3.756-1.187-4.975s-1.878-1.828-3.262-1.828c-1.37,0-2.451,0.609-3.242,1.828s-1.188,2.889-1.188,5.01
	c0,2.098,0.394,3.762,1.178,4.991C27.022,34.879,28.097,35.495,29.456,35.495z" style="fill:#FFFFFF" />
</svg>
