<?xml version="1.0" encoding="UTF-8" standalone="no"?>
<svg
   xmlns:svg="http://www.w3.org/2000/svg"
   xmlns="http://www.w3.org/2000/svg"
   version="1.0" width="60" height="60" viewBox="0 0 60 60"
   id="custom_svg"
   xml:space="preserve">

	<rect id="square" x="7.5" y="7.5" width="44" height="44" style="fill:#000000" />
	<path id="greek_small_omega" d="M29.503,33.475c-0.798,1.758-1.756,3.075-2.875,3.955c-1.119,0.879-2.398,1.317-3.841,1.317
	c-2.414,0-4.392-0.92-5.933-2.761c-1.541-1.84-2.312-4.2-2.312-7.083c0-3.504,0.896-6.803,2.689-9.896h5.36
	c-2.086,3.387-3.129,6.691-3.129,9.914c0,1.793,0.36,3.259,1.081,4.396c0.722,1.137,1.649,1.705,2.786,1.705
	c0.926,0,1.727-0.391,2.399-1.17c0.673-0.778,1.222-1.947,1.644-3.506c-0.68-1.617-1.02-3.105-1.02-4.465
	c0-1.641,0.352-3.334,1.055-5.08h4.185c0.69,1.746,1.037,3.439,1.037,5.08c0,1.348-0.334,2.836-1.002,4.465
	c0.422,1.559,0.97,2.728,1.644,3.506c0.674,0.779,1.474,1.17,2.399,1.17c1.137,0,2.064-0.568,2.785-1.705s1.082-2.603,1.082-4.396
	c0-3.211-1.043-6.516-3.13-9.914h5.361c1.793,3.105,2.688,6.404,2.688,9.896c0,2.883-0.771,5.244-2.312,7.083
	c-1.541,1.841-3.524,2.761-5.95,2.761c-1.441,0-2.722-0.438-3.841-1.317C31.236,36.55,30.288,35.23,29.503,33.475z" style="fill:#FFFFFF" />
</svg>
