<?xml version="1.0" encoding="UTF-8" standalone="no"?>
<svg
   xmlns:svg="http://www.w3.org/2000/svg"
   xmlns="http://www.w3.org/2000/svg"
   version="1.0" width="60" height="60" viewBox="0 0 60 60"
   id="custom_svg"
   xml:space="preserve">

	<rect id="square" x="7.5" y="7.5" width="44" height="44" style="fill:#000000" />
	<path id="2" d="M20.21,38.308v-4.113l0.281-0.387c1.395-1.863,2.824-3.434,4.289-4.711l2.127-1.881c3.504-3.094,5.256-5.807,5.256-8.139
		c0-2.719-1.547-4.078-4.641-4.078c-1.91,0-4.125,0.645-6.645,1.934v-3.814c2.648-0.984,5.209-1.477,7.682-1.477
		c2.766,0,4.98,0.653,6.645,1.96s2.496,3.056,2.496,5.247c0,1.512-0.404,2.889-1.213,4.131s-2.232,2.684-4.271,4.324l-1.758,1.406
		c-2.449,1.969-3.902,3.797-4.359,5.484h11.496v4.113H20.21z" style="fill:#FFFFFF" />
</svg>
