<?xml version="1.0" encoding="UTF-8" standalone="no"?>
<svg
   xmlns:svg="http://www.w3.org/2000/svg"
   xmlns="http://www.w3.org/2000/svg"
   version="1.0" width="60" height="60" viewBox="0 0 60 60"
   id="custom_svg"
   xml:space="preserve">

	<rect id="square" x="7.5" y="7.5" width="44" height="44" style="fill:#000000" />
	<path id="5" d="M22.091,38.171v-3.779c2.215,0.855,4.061,1.283,5.537,1.283c1.488,0,2.669-0.442,3.542-1.327s1.31-2.083,1.31-3.595
		c0-3.727-2.678-5.59-8.033-5.59c-0.633,0-1.266,0.053-1.898,0.158V12.261h14.941v4.113H26.345l-0.264,5.607
		c3.75,0,6.677,0.768,8.78,2.303s3.155,3.68,3.155,6.434c0,2.543-0.92,4.547-2.76,6.012s-4.359,2.197-7.559,2.197
		C26.339,38.927,24.47,38.675,22.091,38.171z" style="fill:#FFFFFF" />
</svg>
