<?xml version="1.0" encoding="UTF-8" standalone="no"?>
<svg
   xmlns:svg="http://www.w3.org/2000/svg"
   xmlns="http://www.w3.org/2000/svg"
   version="1.0" width="60" height="60" viewBox="0 0 60 60"
   id="custom_svg"
   xml:space="preserve">

	<rect id="square" x="7.5" y="7.5" width="44" height="44" style="fill:#000000" />
	<path id="9" d="M21.282,38.114v-3.762c2.215,0.902,4.283,1.354,6.205,1.354c2.051,0,3.671-0.853,4.86-2.558s1.784-4.028,1.784-6.97
		c-1.652,1.98-3.691,2.971-6.117,2.971c-2.285,0-4.207-0.791-5.766-2.373s-2.338-3.533-2.338-5.854c0-2.707,0.882-4.931,2.646-6.671
		s4.017-2.61,6.759-2.61c3.211,0,5.728,1.143,7.55,3.428s2.733,5.438,2.733,9.457c0,4.5-1.072,8.03-3.217,10.591
		s-5.104,3.841-8.877,3.841C25.899,38.958,23.825,38.677,21.282,38.114z M25.114,20.114c0,1.805,0.39,3.229,1.169,4.271
		s1.837,1.564,3.173,1.564c1.266,0,2.332-0.475,3.199-1.424s1.301-2.115,1.301-3.498c0-1.84-0.425-3.322-1.274-4.447
		s-1.966-1.688-3.349-1.688c-1.289,0-2.314,0.469-3.076,1.406S25.114,18.509,25.114,20.114z" style="fill:#FFFFFF" />
</svg>
