<?xml version="1.0" encoding="UTF-8" standalone="no"?>
<svg
   xmlns:svg="http://www.w3.org/2000/svg"
   xmlns="http://www.w3.org/2000/svg"
   version="1.0" width="60" height="60" viewBox="0 0 60 60"
   id="custom_svg"
   xml:space="preserve">

	<rect id="square" x="7.5" y="7.5" width="44" height="44" style="fill:#000000" />
	<path id="g" d="M21.019,44.302l0.422-3.779c2.145,0.984,4.189,1.477,6.135,1.477c1.922,0,3.311-0.41,4.166-1.23s1.283-2.15,1.283-3.99
		v-2.637c-1.266,2.777-3.357,4.166-6.275,4.166c-2.297,0-4.119-0.858-5.467-2.575s-2.021-4.04-2.021-6.97
		c0-3.082,0.756-5.552,2.268-7.409s3.521-2.786,6.029-2.786c1.969,0,3.791,0.797,5.467,2.391l0.545-1.951h4.676v14.73
		c0,2.941-0.179,5.062-0.536,6.363s-1.052,2.408-2.083,3.322c-1.734,1.5-4.178,2.25-7.33,2.25
		C26.058,45.673,23.632,45.216,21.019,44.302z M33.024,31.118v-7.119c-1.254-1.418-2.566-2.127-3.938-2.127
		c-1.312,0-2.355,0.598-3.129,1.793s-1.16,2.801-1.16,4.816c0,3.773,1.213,5.66,3.639,5.66
		C30.112,34.142,31.642,33.134,33.024,31.118z" style="fill:#FFFFFF" />
</svg>
