<?xml version="1.0" encoding="UTF-8" standalone="no"?>
<svg
   xmlns:svg="http://www.w3.org/2000/svg"
   xmlns="http://www.w3.org/2000/svg"
   version="1.0" width="60" height="60" viewBox="0 0 60 60"
   id="custom_svg"
   xml:space="preserve">

	<rect id="square" x="7.5" y="7.5" width="44" height="44" style="fill:#000000" />
	<path id="G_UC" d="M40.108,37.692c-3.258,0.844-6.07,1.266-8.438,1.266c-4.488,0-7.937-1.181-10.345-3.542s-3.612-5.745-3.612-10.151
		c0-4.371,1.204-7.734,3.612-10.09s5.839-3.533,10.292-3.533c2.848,0,5.672,0.334,8.473,1.002v4.236
		c-3.246-1.113-5.912-1.67-7.998-1.67c-2.754,0-4.881,0.879-6.381,2.637s-2.25,4.248-2.25,7.471c0,3.117,0.803,5.563,2.408,7.339
		s3.82,2.663,6.645,2.663c0.621,0,1.348-0.088,2.18-0.264v-8.561h5.414V37.692z" style="fill:#FFFFFF" />
</svg>
