<?xml version="1.0" encoding="UTF-8" standalone="no"?>
<svg
   xmlns:svg="http://www.w3.org/2000/svg"
   xmlns="http://www.w3.org/2000/svg"
   version="1.0" width="60" height="60" viewBox="0 0 60 60"
   id="custom_svg"
   xml:space="preserve">

	<rect id="square" x="7.5" y="7.5" width="44" height="44" style="fill:#000000" />
	<path id="U_UC" d="M19.287,12.261h5.414v15.943c0,2.52,0.416,4.339,1.248,5.458s2.174,1.679,4.025,1.679c1.77,0,3.05-0.533,3.841-1.6
		s1.187-2.783,1.187-5.15v-16.33h4.711v15.979c0,2.402-0.229,4.233-0.686,5.493s-1.289,2.353-2.496,3.278
		c-1.652,1.277-3.873,1.916-6.662,1.916c-2.988,0-5.391-0.68-7.207-2.039c-1.254-0.938-2.13-2.048-2.628-3.331
		s-0.747-3.073-0.747-5.37V12.261z" style="fill:#FFFFFF" />
</svg>
