<?xml version="1.0" encoding="UTF-8" standalone="no"?>
<svg
   xmlns:svg="http://www.w3.org/2000/svg"
   xmlns="http://www.w3.org/2000/svg"
   version="1.0" width="60" height="60" viewBox="0 0 60 60"
   id="custom_svg"
   xml:space="preserve">

	<rect id="square" x="7.5" y="7.5" width="44" height="44" style="fill:#000000" />
	<path id="2_UC" d="M35.951,41.823v3.111c-1.969,0.492-3.762,0.738-5.379,0.738c-4.641,0-8.364-1.471-11.171-4.412s-4.21-6.838-4.21-11.689
		c0-4.898,1.518-9.006,4.553-12.322s6.797-4.975,11.285-4.975c3.938,0,7.107,1.345,9.51,4.034s3.604,6.237,3.604,10.644
		c0,3.258-0.604,5.821-1.811,7.69s-2.865,2.804-4.975,2.804c-1.113,0-1.992-0.264-2.637-0.791s-1.207-1.453-1.688-2.777
		c-1.828,2.379-3.697,3.568-5.607,3.568c-1.699,0-3.035-0.601-4.008-1.802s-1.459-2.856-1.459-4.966
		c0-3.141,0.838-5.689,2.514-7.646s3.855-2.936,6.539-2.936c0.867,0,2.549,0.105,5.045,0.316v9.053l0.035,1.635
		c0,2.273,0.645,3.41,1.934,3.41c2.016,0,3.023-2.396,3.023-7.189c0-3.551-0.926-6.431-2.777-8.64s-4.271-3.313-7.26-3.313
		c-3.504,0-6.501,1.371-8.991,4.113s-3.735,6.041-3.735,9.896c0,3.914,1.154,7.096,3.463,9.545s5.303,3.674,8.982,3.674
		C32.266,42.597,34.006,42.339,35.951,41.823z M32.154,23.349c-0.562-0.223-1.102-0.334-1.617-0.334c-3.047,0-4.57,2.361-4.57,7.084
		c0,2.766,0.826,4.148,2.479,4.148c1.113,0,2.35-1.119,3.709-3.357V23.349z" style="fill:#FFFFFF" />
</svg>
