<?xml version="1.0" encoding="UTF-8" standalone="no"?>
<svg
   xmlns:svg="http://www.w3.org/2000/svg"
   xmlns="http://www.w3.org/2000/svg"
   version="1.0" width="60" height="60" viewBox="0 0 60 60"
   id="custom_svg"
   xml:space="preserve">

	<rect id="square" x="7.5" y="7.5" width="44" height="44" style="fill:#000000" />
	<path id="4_UC" d="M28.313,41.12v-2.883c-1.957,0-4.33-0.434-7.119-1.301v-3.832c2.613,1.184,4.986,1.834,7.119,1.951v-8.35l-0.896-0.615
		c-2.156-1.453-3.609-2.681-4.359-3.683s-1.125-2.218-1.125-3.647c0-1.746,0.571-3.199,1.714-4.359s2.698-1.857,4.667-2.092V9.462
		h2.83v2.848c1.84,0.094,3.703,0.463,5.59,1.107v3.533c-1.922-0.902-3.785-1.436-5.59-1.6v7.875l0.791,0.527
		c2.215,1.418,3.712,2.631,4.491,3.639s1.169,2.238,1.169,3.691c0,1.898-0.577,3.489-1.731,4.772s-2.728,2.083-4.72,2.399v2.865
		H28.313z M28.858,21.749v-6.258c-1.617,0.539-2.426,1.5-2.426,2.883C26.433,19.593,27.241,20.718,28.858,21.749z M30.599,34.845
		c1.676-0.527,2.514-1.559,2.514-3.094c0-1.172-0.838-2.355-2.514-3.551V34.845z" style="fill:#FFFFFF" />
</svg>
