<?xml version="1.0" encoding="UTF-8" standalone="no"?>
<svg
   xmlns:svg="http://www.w3.org/2000/svg"
   xmlns="http://www.w3.org/2000/svg"
   version="1.0" width="60" height="60" viewBox="0 0 60 60"
   id="custom_svg"
   xml:space="preserve">

	<rect id="square" x="7.5" y="7.5" width="44" height="44" style="fill:#000000" />
	<path id="greek_small_phi" d="M24.2,19.007v3.252c-1.148,0-2.01,0.41-2.584,1.23c-0.574,0.82-0.861,2.051-0.861,3.691
	c0,2.52,0.489,4.436,1.468,5.748c0.979,1.312,2.446,2.021,4.403,2.127V31.1c0-5.016,0.516-8.268,1.547-9.756
	c1.289-1.852,3.397-2.777,6.328-2.777c2.729,0,4.866,0.753,6.407,2.259c1.541,1.506,2.312,3.595,2.312,6.267
	c0,3.129-1.063,5.701-3.19,7.718c-2.127,2.016-5.006,3.182-8.64,3.498v6.942h-4.764v-6.942c-3.387-0.211-6.041-1.283-7.963-3.218
	c-1.922-1.934-2.883-4.5-2.883-7.699c0-2.789,0.7-4.884,2.101-6.284C19.282,19.708,21.388,19.007,24.2,19.007z M31.39,35.057
	c2.272-0.177,3.981-0.943,5.124-2.304s1.714-3.311,1.714-5.854c0-1.688-0.29-2.956-0.87-3.806c-0.58-0.85-1.443-1.274-2.593-1.274
	c-1.137,0-1.985,0.492-2.549,1.477c-0.563,0.985-0.845,2.455-0.845,4.412l0.019,2.777V35.057z" style="fill:#FFFFFF" />
</svg>
