<?xml version="1.0" encoding="UTF-8" standalone="no"?>
<svg
   xmlns:svg="http://www.w3.org/2000/svg"
   xmlns="http://www.w3.org/2000/svg"
   version="1.0" width="60" height="60" viewBox="0 0 60 60"
   id="custom_svg"
   xml:space="preserve">

	<rect id="square" x="7.5" y="7.5" width="44" height="44" style="fill:#000000" />
	<path id="greek_small_xi" d="M27.462,23.823c-1.431-0.445-2.566-1.169-3.41-2.171s-1.266-2.13-1.266-3.384
	c0-1.078,0.409-2.209,1.229-3.393c-1.887-0.258-3.674-0.715-5.361-1.371V9.726c2.31,1.195,4.998,2.021,8.068,2.479
	c2.508-1.395,5.004-2.092,7.488-2.092c0.938,0,1.922,0.082,2.953,0.246l0.756,2.109c-1.277,0.938-2.695,1.641-4.254,2.109
	c-1.56,0.468-3.259,0.703-5.099,0.703c-0.526,0.785-0.791,1.635-0.791,2.549c0,1.523,0.627,2.698,1.881,3.524
	c1.255,0.826,3.035,1.239,5.345,1.239h2.268v3.252h-2.127c-2.812,0-4.922,0.416-6.328,1.248s-2.108,2.08-2.108,3.744
	c0,1.125,0.403,1.966,1.213,2.521c0.809,0.557,2.026,0.836,3.655,0.836h1.564c2.402,0,4.204,0.447,5.405,1.345
	s1.802,2.241,1.802,4.034c0,1.875-0.785,3.359-2.355,4.455c-1.569,1.097-3.686,1.645-6.346,1.645c-0.973,0-2.057-0.111-3.252-0.334
	V41.77c1.125,0.293,2.291,0.439,3.498,0.439c1.43,0,2.502-0.176,3.217-0.527c0.715-0.351,1.072-0.873,1.072-1.563
	c0-0.691-0.302-1.166-0.905-1.425c-0.603-0.258-1.702-0.387-3.296-0.387h-1.406c-2.977,0-5.268-0.601-6.873-1.802
	c-1.604-1.2-2.407-2.909-2.407-5.124c0-1.652,0.513-3.108,1.538-4.368C23.854,25.753,25.399,24.69,27.462,23.823z" style="fill:#FFFFFF" />
</svg>
