<?xml version="1.0" encoding="UTF-8" standalone="no"?>
<svg
   xmlns:svg="http://www.w3.org/2000/svg"
   xmlns="http://www.w3.org/2000/svg"
   version="1.0" width="60" height="60" viewBox="0 0 60 60"
   id="custom_svg"
   xml:space="preserve">

	<rect id="square" x="7.5" y="7.5" width="44" height="44" style="fill:#000000" />
	<path id="greek_small_eta" d="M21.405,38.309V24.79c0-2.227-0.381-4.154-1.143-5.783h5.625c0.258,0.902,0.498,2.121,0.721,3.656
	c1.888-2.73,4.078-4.096,6.574-4.096c1.852,0,3.239,0.562,4.166,1.688c0.926,1.126,1.389,2.807,1.389,5.045v19.951h-5.203V26.214
	c0-1.137-0.198-1.989-0.598-2.558c-0.398-0.569-0.996-0.854-1.793-0.854c-1.594,0-3.104,1.103-4.535,3.305v12.199h-5.203V38.309z" style="fill:#FFFFFF" />
</svg>
