<?xml version="1.0" encoding="UTF-8" standalone="no"?>
<svg
   xmlns:svg="http://www.w3.org/2000/svg"
   xmlns="http://www.w3.org/2000/svg"
   version="1.0" width="60" height="60" viewBox="0 0 60 60"
   id="custom_svg"
   xml:space="preserve">

	<rect id="square" x="7.5" y="7.5" width="44" height="44" style="fill:#000000" />
	<path id="greek_capital_beta" d="M20.544,38.275V12.261h8.842c2.612,0,4.603,0.492,5.967,1.477c1.365,0.985,2.049,2.42,2.049,4.307
	c0,3.129-2.08,5.344-6.24,6.645c4.863,1.184,7.295,3.568,7.295,7.154c0,2.074-0.712,3.665-2.136,4.772
	c-1.424,1.106-3.466,1.661-6.126,1.661h-9.65V38.275z M25.641,23.089h1.283c1.522,0,2.732-0.375,3.63-1.125
	c0.896-0.75,1.345-1.77,1.345-3.059c0-1.195-0.36-2.007-1.081-2.436c-0.721-0.428-2.083-0.642-4.087-0.642h-1.09V23.089z
	 M25.641,34.585h1.16c2.272,0,3.841-0.243,4.702-0.729c0.86-0.485,1.292-1.373,1.292-2.662c0-1.324-0.577-2.426-1.731-3.305
	c-1.154-0.879-2.61-1.318-4.368-1.318h-1.055V34.585z" style="fill:#FFFFFF" />
</svg>
