<?xml version="1.0" encoding="UTF-8" standalone="no"?>
<svg
   xmlns:svg="http://www.w3.org/2000/svg"
   xmlns="http://www.w3.org/2000/svg"
   version="1.0" width="60" height="60" viewBox="0 0 60 60"
   id="custom_svg"
   xml:space="preserve">

	<rect id="square" x="7.5" y="7.5" width="44" height="44" style="fill:#000000" />
	<path id="greek_capital_theta" d="M29.334,38.958c-3.949,0-7.107-1.242-9.476-3.728c-2.367-2.484-3.551-5.794-3.551-9.932
	c0-4.184,1.189-7.506,3.568-9.967s5.59-3.691,9.633-3.691c4.021,0,7.223,1.23,9.606,3.691s3.577,5.766,3.577,9.914
	c0,4.242-1.192,7.588-3.577,10.037C36.729,37.732,33.472,38.958,29.334,38.958z M29.404,35.372c2.319,0,4.157-0.911,5.511-2.733
	s2.03-4.292,2.03-7.409c0-3.023-0.681-5.449-2.039-7.277c-1.359-1.828-3.158-2.742-5.396-2.742c-2.262,0-4.069,0.914-5.423,2.742
	c-1.354,1.828-2.03,4.271-2.03,7.33c0,3.035,0.674,5.476,2.021,7.32C25.425,34.449,27.201,35.372,29.404,35.372z M24.623,26.601
	v-3.586h9.756v3.586H24.623z" style="fill:#FFFFFF" />
</svg>
