<?xml version="1.0" encoding="UTF-8" standalone="no"?>
<!-- Created with Inkscape (http://www.inkscape.org/) -->
<svg
   xmlns:svg="http://www.w3.org/2000/svg"
   xmlns="http://www.w3.org/2000/svg"
   version="1.0"
   width="60"
   height="60"
   viewBox="-4 -12 60 60"
   id="svg2223"
   xml:space="preserve">
<defs
   id="defs2225">
</defs>
<rect
   width="60"
   height="60"
   style="fill:#ffffff"
   x="0"
   y="0"
   opacity="0.0"
   id="squr1" />
<g
   id="Rectangle_1_">
	<g
   id="g2228">
		<rect
   width="52"
   height="36"
   x="0"
   y="0"
   style="fill:#990000"
   id="rect2230" />
	</g>
</g>
<g
   id="R_down_arrow_1_">
	<g
   id="g2233">
		<polygon
   points="40,24 40,4 36,4 36,24 32,24 38,32 44,24 40,24 "
   style="fill:#ffffff;fill-rule:evenodd"
   id="polygon2235" />
		<path
   d="M 24,12 C 24,7 21,4 16,4 C 11.4,4 4,4 4,4 L 4,32 C 4,32 6.2,32 8,32 L 8,20 L 11,20 L 19,32 L 24,32 L 16,20 C 21,20 24,17 24,12 z M 8,16 L 8,8 L 16,8 C 18,8 20,10 20,12 C 20,14.3 18,16 16,16 L 8,16 z "
   style="fill:#ffffff;fill-rule:evenodd"
   id="path2245" />
	</g>
</g>
</svg>