<?xml version="1.0" encoding="UTF-8" standalone="no"?>
<svg
   xmlns:svg="http://www.w3.org/2000/svg"
   xmlns="http://www.w3.org/2000/svg"
   version="1.0" width="60" height="60" viewBox="0 0 60 60"
   id="custom_svg"
   xml:space="preserve">

	<rect id="square" x="7.5" y="7.5" width="44" height="44" style="fill:#000000" />
	<path id="6" d="M24.851,24.509c1.629-1.969,3.715-2.953,6.258-2.953c2.32,0,4.242,0.765,5.766,2.294s2.285,3.46,2.285,5.792
		c0,2.73-0.879,4.966-2.637,6.706s-4.02,2.61-6.785,2.61c-3.234,0-5.76-1.151-7.576-3.454s-2.725-5.505-2.725-9.606
		c0-4.512,1.034-8.019,3.103-10.521s4.972-3.753,8.71-3.753c1.758,0,3.938,0.316,6.539,0.949v3.797
		c-2.367-0.996-4.488-1.494-6.363-1.494c-2.086,0-3.703,0.844-4.852,2.531S24.851,21.462,24.851,24.509z M33.956,30.503
		c0-1.77-0.39-3.17-1.169-4.201s-1.837-1.547-3.173-1.547c-1.277,0-2.353,0.469-3.226,1.406s-1.31,2.098-1.31,3.48
		c0,1.816,0.428,3.281,1.283,4.395s1.975,1.67,3.357,1.67c1.289,0,2.317-0.472,3.085-1.415S33.956,32.085,33.956,30.503z" style="fill:#FFFFFF" />
</svg>
