<?xml version="1.0" encoding="UTF-8" standalone="no"?>
<svg
   xmlns:svg="http://www.w3.org/2000/svg"
   xmlns="http://www.w3.org/2000/svg"
   version="1.0" width="60" height="60" viewBox="0 0 60 60"
   id="custom_svg"
   xml:space="preserve">

	<rect id="square" x="7.5" y="7.5" width="44" height="44" style="fill:#000000" />
	<path id="O_UC" d="M29.342,38.958c-3.949,0-7.107-1.242-9.475-3.727s-3.551-5.795-3.551-9.932c0-4.184,1.189-7.506,3.568-9.967
		s5.59-3.691,9.633-3.691c4.02,0,7.222,1.23,9.606,3.691s3.577,5.766,3.577,9.914c0,4.242-1.192,7.588-3.577,10.037
		S33.479,38.958,29.342,38.958z M29.412,35.372c2.32,0,4.157-0.911,5.511-2.733s2.03-4.292,2.03-7.409
		c0-3.023-0.68-5.449-2.039-7.277s-3.158-2.742-5.396-2.742c-2.262,0-4.069,0.914-5.423,2.742s-2.03,4.271-2.03,7.33
		c0,3.035,0.674,5.476,2.021,7.321S27.209,35.372,29.412,35.372z" style="fill:#FFFFFF" />
</svg>
