<?xml version="1.0" encoding="UTF-8" standalone="no"?>
<svg
   xmlns:svg="http://www.w3.org/2000/svg"
   xmlns="http://www.w3.org/2000/svg"
   version="1.0" width="60" height="60" viewBox="0 0 60 60"
   id="custom_svg"
   xml:space="preserve">

	<rect id="square" x="7.5" y="7.5" width="44" height="44" style="fill:#000000" />
	<path id="s" d="M22.064,37.692v-3.814c2.578,1.078,4.781,1.617,6.609,1.617c2.133,0,3.199-0.727,3.199-2.18
		c0-0.938-0.879-1.758-2.637-2.461l-1.758-0.703c-1.91-0.773-3.275-1.605-4.096-2.496s-1.23-1.992-1.23-3.305
		c0-1.828,0.697-3.249,2.092-4.263s3.346-1.521,5.854-1.521c1.57,0,3.439,0.229,5.607,0.686v3.656
		c-2.086-0.727-3.814-1.09-5.186-1.09c-2.156,0-3.234,0.668-3.234,2.004c0,0.879,0.797,1.623,2.391,2.232l1.512,0.58
		c2.262,0.855,3.835,1.723,4.72,2.602s1.327,2.01,1.327,3.393c0,1.816-0.753,3.29-2.259,4.421s-3.466,1.696-5.88,1.696
		C26.775,38.747,24.432,38.396,22.064,37.692z" style="fill:#FFFFFF" />
</svg>
