<?xml version="1.0" encoding="UTF-8" standalone="no"?>
<svg
   xmlns:svg="http://www.w3.org/2000/svg"
   xmlns="http://www.w3.org/2000/svg"
   version="1.0" width="60" height="60" viewBox="0 0 60 60"
   id="custom_svg"
   xml:space="preserve">

	<rect id="square" x="7.5" y="7.5" width="44" height="44" style="fill:#000000" />
	<path id="S_UC" d="M21.01,38.079v-4.465c2.801,1.172,5.197,1.758,7.189,1.758c1.395,0,2.493-0.311,3.296-0.932s1.204-1.465,1.204-2.531
		c0-0.844-0.252-1.556-0.756-2.136s-1.459-1.269-2.865-2.065l-1.74-0.967c-2.332-1.312-3.979-2.569-4.939-3.771
		s-1.441-2.604-1.441-4.21c0-2.145,0.788-3.867,2.364-5.168s3.659-1.951,6.249-1.951c2.074,0,4.412,0.299,7.014,0.896v4.166
		c-2.66-0.996-4.764-1.494-6.311-1.494c-1.195,0-2.153,0.267-2.874,0.8s-1.081,1.233-1.081,2.101c0,0.715,0.252,1.342,0.756,1.881
		s1.453,1.201,2.848,1.986l1.863,1.037c2.508,1.406,4.236,2.701,5.186,3.885s1.424,2.625,1.424,4.324
		c0,2.414-0.896,4.307-2.689,5.678s-4.266,2.057-7.418,2.057C26.201,38.958,23.775,38.665,21.01,38.079z" style="fill:#FFFFFF" />
</svg>
