<?xml version="1.0" encoding="UTF-8" standalone="no"?>
<svg
   xmlns:svg="http://www.w3.org/2000/svg"
   xmlns="http://www.w3.org/2000/svg"
   version="1.0" width="60" height="60" viewBox="0 0 60 60"
   id="custom_svg"
   xml:space="preserve">

	<rect id="square" x="7.5" y="7.5" width="44" height="44" style="fill:#000000" />
	<path id="8_UC" d="M27.733,19.257l-5.115-0.633l1.178-3.604l4.5,2.496c-0.387,0.422-0.58,0.885-0.58,1.389
		C27.716,18.987,27.722,19.104,27.733,19.257z M29.333,20.663l-2.197,4.676l-3.059-2.232l3.762-3.533
		C28.167,20.171,28.665,20.534,29.333,20.663z M27.593,12.261h3.797l-0.967,5.062c-0.316-0.152-0.627-0.229-0.932-0.229
		s-0.609,0.076-0.914,0.229L27.593,12.261z M31.161,19.573l3.762,3.533l-3.076,2.232l-2.18-4.676
		C30.323,20.534,30.821,20.171,31.161,19.573z M30.687,17.517l4.518-2.496l1.16,3.604l-5.115,0.633
		c0.023-0.152,0.035-0.27,0.035-0.352C31.284,18.401,31.085,17.938,30.687,17.517z" style="fill:#FFFFFF" />
</svg>
