<?xml version="1.0" encoding="UTF-8" standalone="no"?>
<svg
   xmlns:svg="http://www.w3.org/2000/svg"
   xmlns="http://www.w3.org/2000/svg"
   version="1.0" width="60" height="60" viewBox="0 0 60 60"
   id="custom_svg"
   xml:space="preserve">

	<rect id="square" x="7.5" y="7.5" width="44" height="44" style="fill:#000000" />
	<path id="greek_small_nu" d="M27.267,38.309c-0.773-2.613-1.963-5.916-3.568-9.906s-3.012-7.122-4.219-9.396h5.836
	c0.41,0.809,0.949,2.051,1.617,3.727l1.354,3.445c0.914,2.32,1.729,4.635,2.443,6.943l0.229,0.721
	c1.055-1.793,2.032-3.961,2.936-6.504c0.902-2.543,1.354-4.4,1.354-5.572c0-0.926-0.176-1.846-0.527-2.76h4.535
	c0.177,0.609,0.265,1.248,0.265,1.916c0,1.512-0.656,3.894-1.97,7.146c-1.312,3.251-2.993,6.666-5.045,10.24H27.267z" style="fill:#FFFFFF" />
</svg>
