<?xml version="1.0" encoding="UTF-8" standalone="no"?>
<svg
   xmlns:svg="http://www.w3.org/2000/svg"
   xmlns="http://www.w3.org/2000/svg"
   version="1.0" width="60" height="60" viewBox="0 0 60 60"
   id="custom_svg"
   xml:space="preserve">

	<rect id="square" x="7.5" y="7.5" width="44" height="44" style="fill:#000000" />
	<path id="greek_small_chi" d="M26.828,31.839l-2.9-5.221l-0.879-1.6c-1.312-2.32-2.561-4.324-3.744-6.012h5.783
	c1.02,1.477,2.367,3.721,4.043,6.732l0.738,1.336l5.08-8.068h4.289l-7.33,11.672l4.078,7.277l1.266,2.057l1.424,2.303
	c0.354,0.574,0.791,1.254,1.318,2.039l0.58,0.896h-5.871c-1.348-1.969-2.619-4.02-3.814-6.152l-2.003-3.586l-6.064,9.738h-4.395
	L26.828,31.839z" style="fill:#FFFFFF" />
</svg>
