<?xml version="1.0" encoding="UTF-8" standalone="no"?>
<svg
   xmlns:svg="http://www.w3.org/2000/svg"
   xmlns="http://www.w3.org/2000/svg"
   version="1.0" width="60" height="60" viewBox="0 0 60 60"
   id="custom_svg"
   xml:space="preserve">

	<rect id="square" x="7.5" y="7.5" width="44" height="44" style="fill:#000000" />
	<path id="greek_small_gamma" d="M27.592,36.059l-0.264-0.65c-1.348-3.328-2.76-6.357-4.236-9.088s-3.023-5.168-4.641-7.312h6.188
	c1.852,2.93,3.352,5.801,4.5,8.613l0.949,2.338c0.059,0.129,0.176,0.41,0.352,0.844c1.522-3.691,3.451-7.412,5.783-11.162
	l0.387-0.633h3.938c-1.103,1.453-2.521,3.879-4.254,7.277c-1.734,3.398-3.082,6.387-4.043,8.965c0.68,2.203,1.02,3.867,1.02,4.992
	c0,1.547-0.422,3.217-1.266,5.01h-4.413c-0.715-1.629-1.072-3.082-1.072-4.359C26.521,39.79,26.878,38.18,27.592,36.059z" style="fill:#FFFFFF" />
</svg>
