<?xml version="1.0" encoding="UTF-8" standalone="no"?>
<svg
   xmlns:svg="http://www.w3.org/2000/svg"
   xmlns="http://www.w3.org/2000/svg"
   version="1.0" width="60" height="60" viewBox="0 0 60 60"
   id="custom_svg"
   xml:space="preserve">

	<rect id="square" x="7.5" y="7.5" width="44" height="44" style="fill:#000000" />
	<path id="greek_small_psi" d="M27.302,45.251v-6.942c-3.738-0.246-6.363-1.22-7.875-2.918c-1.512-1.699-2.268-4.529-2.268-8.491
	v-2.373c0-2.438-0.369-4.277-1.107-5.52h5.133c0.645,1.195,0.967,2.982,0.967,5.361v2.092c0,2.941,0.357,5.007,1.072,6.196
	c0.715,1.188,2.074,1.988,4.078,2.398v-19.3h4.975v19.302c2.016-0.306,3.465-1.1,4.35-2.383c0.887-1.283,1.328-3.231,1.328-5.845
	c0-2.672-0.475-5.279-1.424-7.822h5.062c0.9,2.484,1.354,5.08,1.354,7.787c0,3.539-0.918,6.299-2.752,8.279
	c-1.834,1.979-4.473,3.059-7.918,3.233v6.943L27.302,45.251L27.302,45.251z" style="fill:#FFFFFF" />
</svg>
