<?xml version="1.0" encoding="UTF-8" standalone="no"?>
<svg
   xmlns:svg="http://www.w3.org/2000/svg"
   xmlns="http://www.w3.org/2000/svg"
   version="1.0" width="60" height="60" viewBox="0 0 60 60"
   id="custom_svg"
   xml:space="preserve">

	<rect id="square" x="7.5" y="7.5" width="44" height="44" style="fill:#000000" />
	<path id="greek_small_lamda" d="M28.7,25.44l-5.854,12.869h-4.22l7.998-17.543l-1.229-2.76c-0.646-1.453-1.27-2.373-1.872-2.76
	c-0.604-0.387-1.727-0.58-3.366-0.58h-0.369v-4.113h0.527c3.152,0,5.323,0.398,6.513,1.195c1.19,0.797,2.44,2.689,3.753,5.678
	l5.484,12.393c1.478,3.364,2.912,6.193,4.308,8.491h-5.644l-0.422-0.791c-1.09-2.039-2.156-4.248-3.199-6.627L28.7,25.44z" style="fill:#FFFFFF" />
</svg>
