<?xml version="1.0" encoding="UTF-8" standalone="no"?>
<svg
   xmlns:svg="http://www.w3.org/2000/svg"
   xmlns="http://www.w3.org/2000/svg"
   version="1.0" width="60" height="60" viewBox="0 0 60 60"
   id="custom_svg"
   xml:space="preserve">

	<rect id="square" x="7.5" y="7.5" width="44" height="44" style="fill:#000000" />
	<path id="greek_small_epsilon" d="M36.795,34.105v3.357c-2.496,0.855-4.752,1.283-6.768,1.283c-2.332,0-4.219-0.504-5.66-1.512
	s-2.162-2.326-2.162-3.955c0-2.379,1.676-4.207,5.027-5.484c-2.918-0.738-4.377-2.18-4.377-4.324c0-1.523,0.727-2.722,2.18-3.595
	s3.445-1.31,5.977-1.31c1.816,0,3.568,0.17,5.256,0.51v3.234c-1.688-0.34-3.252-0.51-4.692-0.51c-2.344,0-3.516,0.691-3.516,2.074
	c0,1.652,1.928,2.479,5.783,2.479h0.896v3.252h-1.863c-3.504,0-5.256,1.043-5.256,3.129c0,1.815,1.189,2.725,3.568,2.725
	C32.605,35.46,34.475,35.009,36.795,34.105z" style="fill:#FFFFFF" />
</svg>
