<?xml version="1.0" encoding="UTF-8" standalone="no"?>
<svg
   xmlns:svg="http://www.w3.org/2000/svg"
   xmlns="http://www.w3.org/2000/svg"
   version="1.0" width="60" height="60" viewBox="0 0 60 60"
   id="custom_svg"
   xml:space="preserve">

	<rect id="square" x="7.5" y="7.5" width="44" height="44" style="fill:#000000" />
	<path id="greek_small_final_sigma" d="M27.18,41.771c1.125,0.293,2.291,0.438,3.498,0.438c1.418,0,2.483-0.176,3.198-0.526
	c0.716-0.352,1.072-0.873,1.072-1.564s-0.299-1.166-0.896-1.424c-0.598-0.258-1.693-0.387-3.287-0.387h-1.301
	c-3.199,0-5.6-0.681-7.198-2.039c-1.6-1.359-2.399-3.404-2.399-6.136c0-3.305,1.226-6.059,3.674-8.262
	c2.449-2.203,5.515-3.305,9.193-3.305c1.559,0,3.035,0.141,4.431,0.422v3.516c-1.5-0.457-2.966-0.686-4.396-0.686
	c-2.344,0-4.185,0.688-5.521,2.065s-2.004,3.278-2.004,5.704c0,1.617,0.435,2.789,1.302,3.516c0.866,0.728,2.278,1.09,4.235,1.09
	h1.144c2.401,0,4.204,0.449,5.405,1.346s1.802,2.241,1.802,4.034c0,1.875-0.785,3.36-2.354,4.456
	c-1.57,1.096-3.687,1.644-6.347,1.644c-0.961,0-2.045-0.11-3.252-0.334V41.771z" style="fill:#FFFFFF" />
</svg>
