<?xml version="1.0" encoding="UTF-8" standalone="no"?>
<svg
   xmlns:svg="http://www.w3.org/2000/svg"
   xmlns="http://www.w3.org/2000/svg"
   version="1.0" width="60" height="60" viewBox="0 0 60 60"
   id="custom_svg"
   xml:space="preserve">

	<rect id="square" x="7.5" y="7.5" width="44" height="44" style="fill:#000000" />
	<path id="greek_small_delta" d="M26.469,21.204c-2.156-1.207-3.649-2.25-4.481-3.129c-0.832-0.879-1.248-1.84-1.248-2.883
	c0-1.605,0.772-2.854,2.319-3.744c1.547-0.89,3.709-1.336,6.486-1.336c1.969,0,3.82,0.199,5.556,0.598v3.656
	c-1.841-0.668-3.722-1.002-5.644-1.002c-1.172,0-2.051,0.135-2.637,0.404s-0.879,0.668-0.879,1.195c0,0.516,0.562,1.113,1.688,1.793
	l1.652,1.037l1.616,0.984l1.564,0.967c2.355,1.488,4.047,2.991,5.071,4.509s1.538,3.29,1.538,5.317c0,2.708-0.889,4.913-2.663,6.618
	s-4.069,2.559-6.882,2.559c-2.813,0-5.115-0.803-6.908-2.408s-2.689-3.662-2.689-6.17c0-2.027,0.545-3.788,1.635-5.282
	C22.654,23.392,24.289,22.165,26.469,21.204z M29.51,23.313c-1.395,0.797-2.438,1.752-3.129,2.865
	c-0.691,1.113-1.037,2.385-1.037,3.814c0,1.641,0.391,2.968,1.169,3.98c0.779,1.014,1.796,1.521,3.05,1.521
	c1.195,0,2.175-0.521,2.937-1.564s1.143-2.385,1.143-4.024c0-1.478-0.308-2.704-0.923-3.683S31.033,24.274,29.51,23.313z" style="fill:#FFFFFF" />
</svg>
